<svg xmlns="http://www.w3.org/2000/svg" viewBox="0 0 100 100" width="48" height="48">
  <defs>
    <linearGradient id="awsGradient" x1="0%" y1="0%" x2="100%" y2="100%">
      <stop offset="0%" style="stop-color:#FF9900;stop-opacity:1" />
      <stop offset="100%" style="stop-color:#FF6600;stop-opacity:1" />
    </linearGradient>
  </defs>
  
  <!-- AWS Cloud Shape -->
  <path d="M20 40 C20 30, 30 20, 50 20 C70 20, 80 30, 80 40 C85 40, 90 45, 90 50 C90 55, 85 60, 80 60 L20 60 C15 60, 10 55, 10 50 C10 45, 15 40, 20 40 Z" 
        fill="url(#awsGradient)" 
        stroke="#FF9900" 
        stroke-width="1"/>
  
  <!-- AWS Text -->
  <text x="50" y="45" 
        font-family="Arial, sans-serif" 
        font-size="8" 
        font-weight="bold" 
        text-anchor="middle" 
        fill="white">AWS</text>
  
  <!-- Additional AWS elements -->
  <circle cx="25" cy="35" r="2" fill="white" opacity="0.7"/>
  <circle cx="35" cy="35" r="2" fill="white" opacity="0.7"/>
  <circle cx="45" cy="35" r="2" fill="white" opacity="0.7"/>
  <circle cx="55" cy="35" r="2" fill="white" opacity="0.7"/>
  <circle cx="65" cy="35" r="2" fill="white" opacity="0.7"/>
  <circle cx="75" cy="35" r="2" fill="white" opacity="0.7"/>
</svg>
