<svg xmlns="http://www.w3.org/2000/svg" viewBox="0 0 100 100" width="48" height="48">
  <!-- GitHub Background -->
  <circle cx="50" cy="50" r="45" fill="#24292e" stroke="#24292e" stroke-width="2"/>
  
  <!-- GitHub Cat -->
  <g transform="translate(50,50)">
    <!-- Cat Head -->
    <path d="M-15,-20 C-15,-25 -10,-30 -5,-30 C0,-30 5,-30 5,-30 C10,-30 15,-25 15,-20 C15,-15 10,-10 0,-10 C-10,-10 -15,-15 -15,-20 Z" fill="white"/>
    
    <!-- Cat Ears -->
    <path d="M-12,-25 C-12,-30 -7,-35 -2,-35 C-2,-35 2,-35 2,-35 C7,-35 12,-30 12,-25 C12,-25 12,-20 0,-20 C-12,-20 -12,-25 -12,-25 Z" fill="white"/>
    
    <!-- Cat Eyes -->
    <circle cx="-5" cy="-15" r="2" fill="#24292e"/>
    <circle cx="5" cy="-15" r="2" fill="#24292e"/>
    
    <!-- Cat Nose -->
    <path d="M0,-10 C-1,-8 1,-8 0,-6" fill="#24292e"/>
    
    <!-- Cat Whiskers -->
    <line x1="-15" y1="-12" x2="-8" y2="-12" stroke="#24292e" stroke-width="1"/>
    <line x1="-15" y1="-8" x2="-8" y2="-8" stroke="#24292e" stroke-width="1"/>
    <line x1="8" y1="-12" x2="15" y2="-12" stroke="#24292e" stroke-width="1"/>
    <line x1="8" y1="-8" x2="15" y2="-8" stroke="#24292e" stroke-width="1"/>
    
    <!-- Cat Body -->
    <path d="M-8,0 C-8,5 -8,10 -8,15 C-8,20 -5,25 0,25 C5,25 8,20 8,15 C8,10 8,5 8,0 C8,-5 5,-8 0,-8 C-5,-8 -8,-5 -8,0 Z" fill="white"/>
  </g>
</svg>
